<?xml version="1.0" encoding="UTF-8"?>
<svg version="1.1" xmlns="http://www.w3.org/2000/svg" width="175" height="170">
<path d="M0 0 C57.75 0 115.5 0 175 0 C175 56.1 175 112.2 175 170 C117.25 170 59.5 170 0 170 C0 113.9 0 57.8 0 0 Z " fill="#215B63" transform="translate(0,0)"/>
<path d="M0 0 C0.92468582 -0.01606293 1.84937164 -0.03212585 2.80207825 -0.04867554 C7.03292127 -0.09310935 11.26360715 -0.13418958 15.49462891 -0.15722656 C17.72650579 -0.17378905 19.95832957 -0.20108271 22.18994141 -0.23925781 C25.40644877 -0.29400485 28.6217126 -0.31589761 31.83862305 -0.33056641 C32.83461014 -0.35323578 33.83059723 -0.37590515 34.85676575 -0.39926147 C39.37219335 -0.38548506 41.82904837 -0.27037565 45.67602539 2.24389648 C47.97457644 5.88462532 48.18076833 8.7289456 48.02612305 12.89990234 C48.01904831 13.62529709 48.01197357 14.35069183 48.00468445 15.09806824 C47.97682586 17.40157813 47.9141137 19.7026036 47.8503418 22.00537109 C47.82524743 23.57239313 47.80243624 25.13945349 47.78198242 26.70654297 C47.72702861 30.53626765 47.64082406 34.36414906 47.5378418 38.19287109 C48.99806763 38.1614502 48.99806763 38.1614502 50.48779297 38.12939453 C54.11247956 38.05678923 57.73710235 38.01099775 61.36230469 37.97314453 C62.92882103 37.95307551 64.49526289 37.92581359 66.06152344 37.89111328 C68.31813974 37.84238355 70.57376263 37.81985639 72.83081055 37.80224609 C73.52683884 37.78160095 74.22286713 37.76095581 74.93998718 37.73968506 C78.2240228 37.73818245 80.50999091 38.17952034 83.47802734 39.60229492 C86.60709079 43.53763831 86.25540898 47.1368767 86.2019043 52.03271484 C86.20668793 52.99182266 86.21147156 53.95093048 86.21640015 54.93910217 C86.21979964 56.96568442 86.21059376 58.99232147 86.18969727 61.01879883 C86.16296166 64.11648327 86.18942822 67.21053461 86.22143555 70.30810547 C86.21813088 72.27881658 86.21172348 74.24952543 86.2019043 76.22021484 C86.21202545 77.14430649 86.22214661 78.06839813 86.23257446 79.02049255 C86.1538203 83.35587171 85.92836423 85.60650886 83.47802734 89.28564453 C79.84390136 91.64301331 77.02178161 91.83653969 72.83081055 91.68115234 C71.74271843 91.67054024 71.74271843 91.67054024 70.63264465 91.65971375 C68.32913476 91.63185515 66.02810929 91.569143 63.7253418 91.50537109 C62.15831976 91.48027672 60.5912594 91.45746553 59.02416992 91.43701172 C55.19444524 91.38205791 51.36656383 91.29585335 47.5378418 91.19287109 C47.5692627 92.65309692 47.5692627 92.65309692 47.60131836 94.14282227 C47.67392366 97.76750885 47.71971515 101.39213164 47.75756836 105.01733398 C47.77763738 106.58385033 47.8048993 108.15029218 47.83959961 109.71655273 C47.88832934 111.97316903 47.9108565 114.22879193 47.9284668 116.48583984 C47.94911194 117.18186813 47.96975708 117.87789642 47.99102783 118.59501648 C47.99251197 121.83866554 47.54562114 124.17582819 46.19677734 127.13085938 C41.98647949 130.39595676 37.79111326 129.92707403 32.60424805 129.89208984 C31.53416 129.89924515 30.46407196 129.90640045 29.36155701 129.91377258 C27.09960769 129.92155333 24.83758337 129.91652966 22.57568359 129.8996582 C19.11566258 129.88045612 15.65966935 129.91978861 12.19995117 129.96435547 C10.00138107 129.96464587 7.80280729 129.96150482 5.60424805 129.95458984 C4.57078751 129.96987228 3.53732697 129.98515472 2.47254944 130.00090027 C-4.36278299 129.89011087 -4.36278299 129.89011087 -7.24043274 128.06506348 C-10.76927729 124.34102215 -11.05216664 120.74927965 -10.95043945 115.82568359 C-10.94336472 115.14609589 -10.93628998 114.46650818 -10.92900085 113.7663269 C-10.90121967 111.61567649 -10.83852708 109.46772153 -10.7746582 107.31787109 C-10.74955361 105.85176312 -10.72674423 104.38561394 -10.70629883 102.91943359 C-10.65145108 99.34305086 -10.5652995 95.76822446 -10.4621582 92.19287109 C-11.37505615 92.21381836 -12.2879541 92.23476562 -13.22851562 92.25634766 C-16.62982355 92.32469826 -20.0303972 92.37475438 -23.43212891 92.41259766 C-24.90164741 92.43265934 -26.37108661 92.45991588 -27.84033203 92.49462891 C-29.95796308 92.54339251 -32.07453507 92.5658927 -34.19262695 92.58349609 C-35.46517334 92.60444336 -36.73771973 92.62539062 -38.04882812 92.64697266 C-42.08583347 92.10989877 -43.64306473 91.08330592 -46.4621582 88.19287109 C-48.10960218 85.41470007 -48.71522549 83.36389981 -48.73681641 80.14624023 C-48.75111443 78.96965599 -48.75111443 78.96965599 -48.76570129 77.76930237 C-48.76433418 76.51137123 -48.76433418 76.51137123 -48.76293945 75.22802734 C-48.76722458 74.3577037 -48.7715097 73.48738007 -48.77592468 72.59068298 C-48.78166021 70.75244007 -48.78217397 68.91417447 -48.77783203 67.07592773 C-48.77467333 64.26881045 -48.79813607 61.46274868 -48.82348633 58.65576172 C-48.82575958 56.86735159 -48.8264627 55.07893863 -48.82543945 53.29052734 C-48.8346492 52.45393082 -48.84385895 51.61733429 -48.85334778 50.75538635 C-48.81639904 46.08374503 -48.51843688 42.96806325 -45.4621582 39.19287109 C-41.86771638 36.79657654 -39.31354168 36.93505779 -35.16918945 36.99755859 C-34.46316086 37.00038849 -33.75713226 37.00321838 -33.02970886 37.00613403 C-30.77785188 37.01731646 -28.52639469 37.04241689 -26.2746582 37.06787109 C-24.74666916 37.07790343 -23.21867388 37.08702884 -21.69067383 37.09521484 C-17.94768157 37.11724937 -14.20498764 37.15176542 -10.4621582 37.19287109 C-10.48310547 36.27997314 -10.50405273 35.3670752 -10.52563477 34.42651367 C-10.59398537 31.02520575 -10.64404149 27.6246321 -10.68188477 24.22290039 C-10.70194645 22.75338189 -10.72920298 21.28394269 -10.76391602 19.81469727 C-10.81267962 17.69706622 -10.83517981 15.58049422 -10.8527832 13.46240234 C-10.87373047 12.18985596 -10.89467773 10.91730957 -10.91625977 9.60620117 C-10.38535356 5.61555621 -9.27287334 4.01371317 -6.4621582 1.19287109 C-4.10439658 0.01399028 -2.63026397 0.04148287 0 0 Z " fill="#FBFCFB" transform="translate(68.462158203125,19.80712890625)"/>
<path d="M0 0 C57.75 0 115.5 0 175 0 C175 56.1 175 112.2 175 170 C117.25 170 59.5 170 0 170 C0 113.9 0 57.8 0 0 Z M14 10 C14 10.66 14 11.32 14 12 C13.01 12.33 12.02 12.66 11 13 C9.34547747 15.1056409 9.34547747 15.1056409 7.875 17.6875 C7.35679688 18.53699219 6.83859375 19.38648438 6.3046875 20.26171875 C3.38120592 26.39752889 3.83529129 33.11566228 3.80712891 39.77197266 C3.79895142 40.84597321 3.79077393 41.91997375 3.78234863 43.02651978 C3.75758593 46.5723618 3.74100132 50.11816402 3.7265625 53.6640625 C3.72123882 54.87922924 3.71591515 56.09439598 3.71043015 57.34638596 C3.68373735 63.77925739 3.66435063 70.21210967 3.64990234 76.64501953 C3.63657067 81.95443985 3.60872553 87.26347518 3.56787109 92.57275391 C3.51843193 98.998798 3.49376747 105.42449331 3.48667526 111.85071945 C3.47998332 114.29141424 3.46481538 116.73210187 3.44078445 119.17268753 C2.85153126 138.87924154 2.85153126 138.87924154 11.5 156 C12.7375 156.99 12.7375 156.99 14 158 C14.78375 158.70125 15.5675 159.4025 16.375 160.125 C23.43785361 165.16989543 29.43562714 165.44619367 37.91113281 165.43579102 C39.68569603 165.45090477 39.68569603 165.45090477 41.49610901 165.46632385 C44.72575984 165.48986482 47.95506251 165.4998521 51.1847887 165.50177121 C53.20795194 165.50391136 55.23105546 165.5103306 57.2542038 165.51826286 C64.32787392 165.54597818 71.40137504 165.55827354 78.47509766 165.5559082 C85.04354878 165.55410815 91.61125896 165.58572817 98.17952275 165.63313919 C103.83927192 165.67251988 109.49878049 165.68845345 115.15866542 165.68654197 C118.52998507 165.68578133 121.90064592 165.6940912 125.2718277 165.72607613 C129.0389317 165.75562274 132.80415173 165.74678755 136.57128906 165.72875977 C138.2206823 165.75404755 138.2206823 165.75404755 139.90339661 165.77984619 C148.68252595 165.67361774 155.42289087 162.96494649 162.08792496 157.19132328 C169.63766226 149.26708098 171.60287507 140.34042169 171.53344727 129.68212891 C171.54206284 128.59779068 171.55067841 127.51345245 171.55955505 126.39625549 C171.58211322 122.83944289 171.57549381 119.2834248 171.56640625 115.7265625 C171.57164668 113.23611214 171.57792469 110.74566378 171.58518982 108.25521851 C171.59557568 103.04537593 171.59105889 97.83580679 171.57641602 92.62597656 C171.55924051 85.97275615 171.5827182 79.32073984 171.61790562 72.6675663 C171.63994163 67.52688958 171.63842285 62.38641772 171.6301403 57.24570847 C171.62932402 54.79387845 171.63612523 52.34203291 171.65091133 49.89024734 C172.36813876 30.35776464 172.36813876 30.35776464 163.75709534 13.54336548 C157.38559798 7.42947464 150.87033617 3.90913661 142.00610352 3.83937073 C140.99983414 3.8293251 139.99356476 3.81927948 138.95680237 3.80892944 C137.85859665 3.80309845 136.76039093 3.79726746 135.62890625 3.79125977 C134.46741562 3.78147598 133.30592499 3.7716922 132.10923767 3.76161194 C128.26033674 3.73166817 124.41147062 3.71027212 120.5625 3.69140625 C119.24620605 3.68483442 117.92991211 3.6782626 116.57373047 3.67149162 C111.03713371 3.64510831 105.50053744 3.62211908 99.96389771 3.60699558 C92.05596443 3.58513529 84.14871402 3.54325787 76.24105358 3.47355801 C70.66716265 3.42611574 65.09345454 3.40203491 59.51936817 3.3947987 C56.19760721 3.38987055 52.87678777 3.37197838 49.5552063 3.3350544 C45.83835466 3.29596983 42.1232598 3.2951289 38.40625 3.30297852 C36.78323219 3.2729776 36.78323219 3.2729776 35.12742615 3.24237061 C26.8951733 3.31993112 21.0514898 5.85064487 14 10 Z " fill="#EFF5F5" transform="translate(0,0)"/>
<path d="M0 0 C2.31 0 4.62 0 7 0 C7 0.99 7 1.98 7 3 C7.7425 3.28875 8.485 3.5775 9.25 3.875 C15.77142857 6.54285714 15.77142857 6.54285714 17 9 C17.24105469 8.360625 17.48210937 7.72125 17.73046875 7.0625 C19 5 19 5 20.98828125 4.25 C27.28309945 3.57291031 27.28309945 3.57291031 30.9375 5.75 C33.69568504 8.75892913 34.94905182 10.29946258 35.25 14.4375 C35.02317093 17.66981422 34.88631019 19.41873342 33 22 C32.01 22.33 31.02 22.66 30 23 C29.67 23.66 29.34 24.32 29 25 C29.9075 24.95875 30.815 24.9175 31.75 24.875 C34.90068238 24.99618009 36.45403741 25.2083967 39 27 C39.495 28.485 39.495 28.485 40 30 C40.7734375 30.6496875 40.7734375 30.6496875 41.5625 31.3125 C43 33 43 33 43.5 35.875 C42.82670977 40.08306394 41.25254063 41.31311861 38 44 C36.576875 44.8353125 36.576875 44.8353125 35.125 45.6875 C31.28455835 48.52942682 29.18451617 51.7738761 26.61328125 55.7578125 C25 58 25 58 22 60 C18.5625 60.4375 18.5625 60.4375 15 60 C11.73292401 56.99085106 10.50130284 54.38639981 10 50 C7.62570704 49.74930087 7.62570704 49.74930087 5 50 C4.32324219 50.73476562 4.32324219 50.73476562 3.6328125 51.484375 C1.44978976 53.51072147 0.12951695 53.43298077 -2.8125 53.4375 C-6.24589423 53.30177285 -8.3491166 52.86757646 -11.625 51.625 C-14.38085256 48.5790577 -14.35253316 47.71539737 -14.375 43.75 C-14.27877979 42.16465741 -14.16281338 40.5798928 -14 39 C-12.515 38.505 -12.515 38.505 -11 38 C-11 36.35 -11 34.7 -11 33 C-11.99 32.67 -12.98 32.34 -14 32 C-16.36032206 29.47108351 -17.00855249 27.67564644 -16.96484375 24.22265625 C-16.71306875 21.46731572 -16.39796345 18.73779678 -16 16 C-11.52745503 14.50915168 -7.47254497 14.50915168 -3 16 C-3.33 15.01 -3.66 14.02 -4 13 C-4.06740865 11.43881572 -4.08514456 9.8749748 -4.0625 8.3125 C-4.05347656 7.50425781 -4.04445313 6.69601563 -4.03515625 5.86328125 C-4.02355469 5.24839844 -4.01195313 4.63351563 -4 4 C-3.34 4 -2.68 4 -2 4 C-1.34 2.68 -0.68 1.36 0 0 Z " fill="#FCEFDC" transform="translate(74,53)"/>
<path d="M0 0 C9.70790816 3.29081633 9.70790816 3.29081633 11.6875 7.25 C12.0625 10.0625 12.0625 10.0625 11.6875 13.25 C9.31454776 16.18129394 7.06169521 18.03036368 3.8125 19.9375 C-0.02794165 22.77942682 -2.12798383 26.0238761 -4.69921875 30.0078125 C-6.3125 32.25 -6.3125 32.25 -9.3125 34.25 C-12.75 34.6875 -12.75 34.6875 -16.3125 34.25 C-22.09145907 28.31924839 -24.46241286 19.41199692 -24.75 11.25 C-24.54671033 7.55012801 -23.7667419 5.12738706 -21.3125 2.25 C-14.98932402 -2.283805 -7.3778858 -1.59950259 0 0 Z " fill="#F4741E" transform="translate(105.3125,78.75)"/>
<path d="M0 0 C3.76456766 2.06682146 7.05213977 4.10427955 9 8 C9.67320854 12.02262878 9.62059268 14.96567886 7.5 18.5 C4.64042365 20.21574581 2.307646 20.68075281 -1.03125 20.53125 C-4.68213046 19.54609178 -5.96911118 17.07710427 -8 14 C-9.16343227 11.67313547 -9.19895988 10.15278587 -9.25 7.5625 C-9.28867188 6.38880859 -9.28867188 6.38880859 -9.328125 5.19140625 C-8.52627931 -0.16377749 -4.77325038 -0.65515201 0 0 Z " fill="#F2741F" transform="translate(81,55)"/>
<path d="M0 0 C4.96411317 0.58896258 8.0799273 2.25297275 12.0625 5.1875 C14.40013722 8.42422845 14.24404975 10.54165176 13.6875 14.4375 C12.1875 16.875 12.1875 16.875 9.6875 18.4375 C5.35896206 18.91844866 2.86087107 18.93292334 -1.125 17.25 C-4.63146498 14.3446433 -6.13145822 11.9160079 -6.6875 7.375 C-6.06204301 2.47558688 -5.03712883 0.66528117 0 0 Z " fill="#F6731B" transform="translate(63.3125,69.5625)"/>
<path d="M0 0 C-3.28592407 2.19061605 -4.22221328 2.24827276 -8.03031921 2.24050903 C-9.06938416 2.24325836 -10.1084491 2.24600769 -11.17900085 2.24884033 C-12.31835587 2.24164978 -13.45771088 2.23445923 -14.6315918 2.22705078 C-15.83171906 2.22734283 -17.03184631 2.22763489 -18.26834106 2.22793579 C-21.55947896 2.22678038 -24.85036659 2.21674326 -28.14146018 2.20278788 C-31.58077493 2.19029362 -35.02009294 2.18911105 -38.45942688 2.18673706 C-44.97235556 2.18051845 -51.48521718 2.1641025 -57.99811631 2.14403808 C-65.41278748 2.12169092 -72.82746184 2.11068863 -80.24215829 2.10064721 C-95.49481105 2.07973658 -110.74739688 2.04455322 -126 2 C-126 1.34 -126 0.68 -126 0 C-110.16231261 -0.15393884 -94.32458176 -0.30197104 -78.48677444 -0.4429636 C-71.13308079 -0.50856608 -63.77941441 -0.57610437 -56.42578125 -0.64819336 C-50.01667732 -0.71101806 -43.60755194 -0.77021727 -37.19837451 -0.82505554 C-33.80449173 -0.85422113 -30.41064752 -0.88520713 -27.01682281 -0.92053413 C-23.22901346 -0.95905119 -19.44120097 -0.99116016 -15.65332031 -1.02172852 C-13.96370682 -1.04114754 -13.96370682 -1.04114754 -12.23995972 -1.06095886 C-11.20793427 -1.06799835 -10.17590881 -1.07503784 -9.11260986 -1.08229065 C-8.21662708 -1.09058679 -7.3206443 -1.09888292 -6.39751053 -1.10743046 C-4.12002807 -1.00537836 -2.18071416 -0.64216946 0 0 Z " fill="#245158" transform="translate(152,163)"/>
<path d="M0 0 C0.33 0 0.66 0 1 0 C1.0246519 4.82380802 1.04283693 9.64757967 1.05493164 14.47143555 C1.05997174 16.11369464 1.06680378 17.75594923 1.07543945 19.39819336 C1.08751926 21.75375479 1.09323139 24.10925709 1.09765625 26.46484375 C1.10281754 27.20339096 1.10797882 27.94193817 1.11329651 28.7028656 C1.1134925 30.46898088 1.06194719 32.23497146 1 34 C-0.91630736 35.91630736 -4.42123347 35.13126724 -6.95703125 35.140625 C-8.39389601 35.15895682 -9.8307454 35.17852748 -11.26757812 35.19921875 C-13.53908068 35.22817384 -15.80959984 35.24999938 -18.08129883 35.25048828 C-20.26993614 35.25382644 -22.4562907 35.28839615 -24.64453125 35.328125 C-26.61450073 35.34214355 -26.61450073 35.34214355 -28.62426758 35.35644531 C-32.05861935 35.74184529 -32.05861935 35.74184529 -34.43530273 37.92358398 C-36.66096544 42.29955148 -36.49987682 46.05368968 -36.390625 50.89453125 C-36.38496521 51.84188644 -36.37930542 52.78924164 -36.37347412 53.76530457 C-36.35114084 56.78155735 -36.3009498 59.79660822 -36.25 62.8125 C-36.22993107 64.86131093 -36.21168099 66.91014054 -36.1953125 68.95898438 C-36.15128594 73.97311709 -36.0822791 78.98635499 -36 84 C-38.59544269 81.46684449 -39.22750551 79.46131008 -39.38818359 75.95336914 C-39.40794661 74.31408041 -39.41030861 72.67452113 -39.3984375 71.03515625 C-39.40274277 69.72967079 -39.40274277 69.72967079 -39.40713501 68.39781189 C-39.40917387 66.55955351 -39.40365644 64.72127335 -39.39111328 62.88305664 C-39.3750762 60.07583829 -39.3909577 57.27006388 -39.41015625 54.46289062 C-39.40817341 52.674476 -39.40432888 50.88606227 -39.3984375 49.09765625 C-39.40451019 48.26105972 -39.41058289 47.4244632 -39.4168396 46.56251526 C-39.36081013 41.89634616 -39.04896819 38.77113937 -36 35 C-32.40555817 32.60370545 -29.85138348 32.74218669 -25.70703125 32.8046875 C-25.00100266 32.8075174 -24.29497406 32.81034729 -23.56755066 32.81326294 C-21.31569367 32.82444536 -19.06423648 32.8495458 -16.8125 32.875 C-15.28451096 32.88503233 -13.75651567 32.89415774 -12.22851562 32.90234375 C-8.48552337 32.92437828 -4.74282944 32.95889433 -1 33 C-1.00523682 32.0713916 -1.01047363 31.1427832 -1.01586914 30.18603516 C-1.03289593 26.74576195 -1.04544273 23.30553341 -1.05493164 19.86523438 C-1.05996514 18.37531834 -1.06679242 16.88540726 -1.07543945 15.39550781 C-1.08754805 13.25584696 -1.09323807 11.11625132 -1.09765625 8.9765625 C-1.10289307 7.68830566 -1.10812988 6.40004883 -1.11352539 5.07275391 C-1 2 -1 2 0 0 Z " fill="#BDD0D2" transform="translate(59,24)"/>
<path d="M0 0 C4.6581582 1.36532223 6.10976991 2.94666894 8.625 7.0625 C9.16391859 11.52782548 8.73775455 14.17638921 6.625 18.0625 C3.55129883 18.41715783 0.68892804 18.55293943 -2.375 18.0625 C-5.80764888 14.79729741 -6.61730309 11.96963502 -6.8125 7.375 C-6.80784174 4.6778656 -6.68186319 3.47407912 -5.05859375 1.296875 C-3.375 0.0625 -3.375 0.0625 0 0 Z " fill="#F4741D" transform="translate(100.375,56.9375)"/>
<path d="M0 0 C2.65683189 1.49748707 4.84652751 2.84652751 7 5 C7.46609217 10.36005995 7.46609217 10.36005995 5.78515625 12.66796875 C2.32451265 15.25019953 -1.89650976 14.55985603 -6 14 C-9.625 12.4375 -9.625 12.4375 -12 10 C-12.625 6.4375 -12.625 6.4375 -12 3 C-9.01902939 -0.85042037 -4.51651068 -0.81487909 0 0 Z " fill="#EC7A2B" transform="translate(72,92)"/>
<path d="M0 0 C4.96411317 0.58896258 8.0799273 2.25297275 12.0625 5.1875 C14.40013722 8.42422845 14.24404975 10.54165176 13.6875 14.4375 C12.1875 16.875 12.1875 16.875 9.6875 18.4375 C5.35896206 18.91844866 2.86087107 18.93292334 -1.125 17.25 C-4.63146498 14.3446433 -6.13145822 11.9160079 -6.6875 7.375 C-6.06204301 2.47558688 -5.03712883 0.66528117 0 0 Z M-4.3125 3.4375 C-4.35342937 5.77047433 -4.35491723 8.10455225 -4.3125 10.4375 C-3.6525 10.4375 -2.9925 10.4375 -2.3125 10.4375 C-2.250625 11.05625 -2.18875 11.675 -2.125 12.3125 C-1.48687743 14.6145112 -1.48687743 14.6145112 0.75 15.75 C4.7088321 16.67653517 7.6861845 16.11568907 11.6875 15.4375 C11.6875 13.1275 11.6875 10.8175 11.6875 8.4375 C11.0275 8.4375 10.3675 8.4375 9.6875 8.4375 C9.3575 6.7875 9.0275 5.1375 8.6875 3.4375 C5.42721043 2.35073681 -1.74656307 0.87156307 -4.3125 3.4375 Z " fill="#DF7D38" transform="translate(63.3125,69.5625)"/>
<path d="M0 0 C0.33 0 0.66 0 1 0 C1.02688151 1.64574566 1.04634123 3.29161413 1.0625 4.9375 C1.07410156 5.85402344 1.08570312 6.77054687 1.09765625 7.71484375 C1 10 1 10 0 11 C-2.33333333 10.66666667 -4.66666667 10.33333333 -7 10 C-11.36523533 9.70790247 -15.22168739 9.48112492 -19 12 C-19 11.01 -19 10.02 -19 9 C-18.01 8.67 -17.02 8.34 -16 8 C-16 6.68 -16 5.36 -16 4 C-11.38 4 -6.76 4 -2 4 C-1.34 2.68 -0.68 1.36 0 0 Z " fill="#FDFAEE" transform="translate(79,83)"/>
<path d="M0 0 C4.6581582 1.36532223 6.10976991 2.94666894 8.625 7.0625 C9.16391859 11.52782548 8.73775455 14.17638921 6.625 18.0625 C3.55129883 18.41715783 0.68892804 18.55293943 -2.375 18.0625 C-5.80764888 14.79729741 -6.61730309 11.96963502 -6.8125 7.375 C-6.80784174 4.6778656 -6.68186319 3.47407912 -5.05859375 1.296875 C-3.375 0.0625 -3.375 0.0625 0 0 Z M-5.375 4.0625 C-5.26041307 5.50086751 -5.13290884 6.93820966 -5 8.375 C-4.93039063 9.17550781 -4.86078125 9.97601563 -4.7890625 10.80078125 C-4.47935574 13.33474441 -4.47935574 13.33474441 -2.375 16.0625 C-0.16774927 16.42612818 -0.16774927 16.42612818 2.25 16.25 C3.06726563 16.22292969 3.88453125 16.19585937 4.7265625 16.16796875 C5.35304688 16.13316406 5.97953125 16.09835938 6.625 16.0625 C6.6559375 14.20625 6.6559375 14.20625 6.6875 12.3125 C6.69910156 11.61640625 6.71070312 10.9203125 6.72265625 10.203125 C6.62349799 8.02957597 6.22193851 6.14943463 5.625 4.0625 C4.16763913 3.86758548 2.70905407 3.68180642 1.25 3.5 C0.03183594 3.34337891 0.03183594 3.34337891 -1.2109375 3.18359375 C-3.42399186 2.88012672 -3.42399186 2.88012672 -5.375 4.0625 Z " fill="#DE8240" transform="translate(100.375,56.9375)"/>
<path d="M0 0 C0.66 0 1.32 0 2 0 C3.44430855 2.88861709 3.37688506 4.79647701 3 8 C0.60936331 10.95313944 -1.67673299 12.8074154 -4.9375 14.75 C-9.09504552 17.80452324 -11.36337949 21.62433192 -14 26 C-14.58203125 24.140625 -14.58203125 24.140625 -15 22 C-13.6875 19.75 -13.6875 19.75 -12 18 C-11.34 18 -10.68 18 -10 18 C-10 16.68 -10 15.36 -10 14 C-9.01 14 -8.02 14 -7 14 C-7 13.34 -7 12.68 -7 12 C-6.21625 11.87625 -5.4325 11.7525 -4.625 11.625 C-1.80898488 10.2707816 -1.80898488 10.2707816 -1.22265625 7.640625 C-0.73064551 5.09797096 -0.31769004 2.56997021 0 0 Z " fill="#E37D37" transform="translate(114,84)"/>
<path d="M0 0 C0.99 0.33 1.98 0.66 3 1 C2.67 1.33 2.34 1.66 2 2 C1.90105545 3.4346959 1.87029265 4.87440397 1.875 6.3125 C1.87242188 7.09238281 1.86984375 7.87226562 1.8671875 8.67578125 C1.99500088 10.91251539 2.38086131 12.85266979 3 15 C1.68 14.34 0.36 13.68 -1 13 C-1.99 13.66 -2.98 14.32 -4 15 C-3.97679688 14.32453125 -3.95359375 13.6490625 -3.9296875 12.953125 C-3.90261719 11.61507812 -3.90261719 11.61507812 -3.875 10.25 C-3.84019531 8.92742187 -3.84019531 8.92742187 -3.8046875 7.578125 C-4.00860498 4.8864142 -4.63448279 3.30095026 -6 1 C-3 2 -3 2 -2 4 C-1.34 2.68 -0.68 1.36 0 0 Z " fill="#FBE6CA" transform="translate(93,58)"/>
<path d="M0 0 C0.33 0 0.66 0 1 0 C1.33 3.96 1.66 7.92 2 12 C2.66 12 3.32 12 4 12 C4 12.99 4 13.98 4 15 C5.32 15 6.64 15 8 15 C8 15.66 8 16.32 8 17 C9.65 17 11.3 17 13 17 C13 17.33 13 17.66 13 18 C5.91606448 18.72040022 5.91606448 18.72040022 3.390625 16.734375 C0.21957983 12.89181438 -1.14068465 10.32326896 -1.125 5.4375 C-1.12886719 4.22900391 -1.12886719 4.22900391 -1.1328125 2.99609375 C-1 1 -1 1 0 0 Z " fill="#DF7E39" transform="translate(73,57)"/>
<path d="M0 0 C3.96 0 7.92 0 12 0 C11.67 0.66 11.34 1.32 11 2 C7.9375 2.625 7.9375 2.625 5 3 C7.31 3.33 9.62 3.66 12 4 C12.33 4.99 12.66 5.98 13 7 C12.505 6.835 12.01 6.67 11.5 6.5 C6.51018376 5.50203675 1.39157842 5.07228105 -3 8 C-3 7.01 -3 6.02 -3 5 C-2.01 4.67 -1.02 4.34 0 4 C0 2.68 0 1.36 0 0 Z " fill="#FBE1C4" transform="translate(63,87)"/>
<path d="M0 0 C1.15894218 2.31788436 1.0716114 3.5559411 1 6.125 C0.94307481 10.51535556 1.36839372 14.6577068 2 19 C0.125 18.875 0.125 18.875 -2 18 C-3.1875 15.0625 -3.1875 15.0625 -4 12 C-4.33 11.34 -4.66 10.68 -5 10 C-4.01 9.67 -3.02 9.34 -2 9 C-1.7834375 7.0509375 -1.7834375 7.0509375 -1.5625 5.0625 C-1.125 1.125 -1.125 1.125 0 0 Z " fill="#FADEBF" transform="translate(81,84)"/>
<path d="M0 0 C9.18456133 -0.27553684 17.14857706 -0.39785327 25 5 C21.13803264 6.93098368 15.50322667 4.15276524 11.5 2.9375 C7.63651191 1.90263712 3.97327692 1.41823968 0 1 C0 0.67 0 0.34 0 0 Z " fill="#E1894A" transform="translate(89,78)"/>
<path d="M0 0 C1.65 0 3.3 0 5 0 C4.67 0.99 4.34 1.98 4 3 C4.9075 2.95875 5.815 2.9175 6.75 2.875 C9.8782046 2.99531556 11.38614006 3.3914708 14 5 C14 5.66 14 6.32 14 7 C13.27296875 6.79503906 12.5459375 6.59007813 11.796875 6.37890625 C4.51579832 4.42795109 -2.47612071 3.38686613 -10 3 C-10 2.67 -10 2.34 -10 2 C-6.7 1.67 -3.4 1.34 0 1 C0 0.67 0 0.34 0 0 Z " fill="#FBE2C4" transform="translate(99,75)"/>
<path d="M0 0 C4.7613531 3.80908248 4.7613531 3.80908248 5.40234375 7.0078125 C5.46560278 10.81741168 5.13372486 12.79941271 3 16 C1.35 15.67 -0.3 15.34 -2 15 C-2 14.67 -2 14.34 -2 14 C-0.35 14 1.3 14 3 14 C3 11.36 3 8.72 3 6 C2.34 6 1.68 6 1 6 C0.67 4.02 0.34 2.04 0 0 Z " fill="#E08240" transform="translate(85,58)"/>
<path d="M0 0 C0 0.33 0 0.66 0 1 C-1.60875 1.0928125 -1.60875 1.0928125 -3.25 1.1875 C-7.04251987 1.68605576 -7.04251987 1.68605576 -9.375 4.125 C-11.26326251 7.46577214 -11.70183704 10.19842229 -12 14 C-12.33 14 -12.66 14 -13 14 C-13.6104394 5.11471542 -13.6104394 5.11471542 -11.5625 1.375 C-7.76342931 -0.66352574 -4.22214379 -0.32478029 0 0 Z " fill="#E1EFF0" transform="translate(34,58)"/>
<path d="M0 0 C0.33 0.66 0.66 1.32 1 2 C0 4 0 4 -1.7734375 4.6171875 C-4.09998748 5.01719083 -6.26525696 5.13289212 -8.625 5.125 C-9.40101562 5.12757812 -10.17703125 5.13015625 -10.9765625 5.1328125 C-13 5 -13 5 -15 4 C-14.67 3.01 -14.34 2.02 -14 1 C-13.34 1.33 -12.68 1.66 -12 2 C-10.33654418 2.12082534 -8.66779409 2.1753794 -7 2.1875 C-5.6696875 2.20876953 -5.6696875 2.20876953 -4.3125 2.23046875 C-1.80480016 2.22713126 -1.80480016 2.22713126 0 0 Z " fill="#F9DFC2" transform="translate(78,103)"/>
<path d="M0 0 C0.66 0 1.32 0 2 0 C3.42041821 2.84083641 3.31452272 4.85477278 3 8 C1 10.375 1 10.375 -1 12 C-1.33 11.01 -1.66 10.02 -2 9 C-1.67 8.67 -1.34 8.34 -1 8 C-0.76924918 6.65252916 -0.58846937 5.29622435 -0.4375 3.9375 C-0.293125 2.638125 -0.14875 1.33875 0 0 Z " fill="#E18340" transform="translate(114,84)"/>
<path d="M0 0 C3 3 3 3 3.3125 6.4375 C3 10 3 10 1 14 C-1.97 14 -4.94 14 -8 14 C-8 13.67 -8 13.34 -8 13 C-5.36 12.67 -2.72 12.34 0 12 C0 8.04 0 4.08 0 0 Z " fill="#E2975F" transform="translate(106,61)"/>
<path d="M0 0 C3.875 4.75 3.875 4.75 5 7 C4.34 7.66 3.68 8.32 3 9 C2.236875 8.38125 1.47375 7.7625 0.6875 7.125 C-1.99625809 4.94402948 -1.99625809 4.94402948 -5 3 C-3.68 3 -2.36 3 -1 3 C-0.67 2.01 -0.34 1.02 0 0 Z " fill="#F9DBB8" transform="translate(72,67)"/>
<path d="M0 0 C5.39449293 -0.27429625 8.51925805 -0.36055646 13 3 C11.1875 3.625 11.1875 3.625 9 4 C8.01 3.34 7.02 2.68 6 2 C4.0103005 1.60986284 2.00980131 1.26797351 0 1 C0 0.67 0 0.34 0 0 Z " fill="#DC7F3D" transform="translate(64,92)"/>
<path d="M0 0 C2.97 0 5.94 0 9 0 C9 0.33 9 0.66 9 1 C7.9275 1.12375 6.855 1.2475 5.75 1.375 C2.62136385 1.89643936 0.66519576 2.40088254 -2 4 C-1.34 2.68 -0.68 1.36 0 0 Z M-4 4 C-3.34 4.33 -2.68 4.66 -2 5 C-2.99 5.66 -3.98 6.32 -5 7 C-4.67 6.01 -4.34 5.02 -4 4 Z " fill="#E67427" transform="translate(88,79)"/>
<path d="M0 0 C2.97 0.495 2.97 0.495 6 1 C6 1.66 6 2.32 6 3 C7.65 3 9.3 3 11 3 C11 3.33 11 3.66 11 4 C5.62694301 4.35233161 5.62694301 4.35233161 3 4 C1 2 1 2 0 0 Z " fill="#E0874A" transform="translate(75,71)"/>
<path d="M0 0 C0.33 0.66 0.66 1.32 1 2 C-0.625 4.0625 -0.625 4.0625 -3 6 C-6.25 5.75 -6.25 5.75 -9 5 C-9 4.67 -9 4.34 -9 4 C-7.88625 3.71125 -6.7725 3.4225 -5.625 3.125 C-1.99708908 2.30758671 -1.99708908 2.30758671 0 0 Z " fill="#F9E1C4" transform="translate(100,109)"/>
<path d="M0 0 C0.66 0 1.32 0 2 0 C2 0.66 2 1.32 2 2 C2.99 2.33 3.98 2.66 5 3 C5 3.66 5 4.32 5 5 C6.98 5 8.96 5 11 5 C11 5.33 11 5.66 11 6 C7.75 6.3125 7.75 6.3125 4 6 C1.5625 3.5625 1.5625 3.5625 0 1 C0 0.67 0 0.34 0 0 Z " fill="#DF9156" transform="translate(85,107)"/>
<path d="M0 0 C2.5 1.5625 2.5 1.5625 5 4 C5.3125 7.75 5.3125 7.75 5 11 C4.67 11 4.34 11 4 11 C4 9.02 4 7.04 4 5 C3.01 5 2.02 5 1 5 C0.67 3.35 0.34 1.7 0 0 Z " fill="#DF8747" transform="translate(72,73)"/>
</svg>
