<svg width="320" height="220" viewBox="0 0 320 220" fill="none" xmlns="http://www.w3.org/2000/svg">
  <defs>
    <linearGradient id="bg" x1="36" y1="24" x2="284" y2="196" gradientUnits="userSpaceOnUse">
      <stop stop-color="#17707A"/>
      <stop offset="1" stop-color="#155E66"/>
    </linearGradient>
    <linearGradient id="halo" x1="96" y1="68" x2="224" y2="180" gradientUnits="userSpaceOnUse">
      <stop stop-color="#E7FAFC"/>
      <stop offset="1" stop-color="#C7EEF3"/>
    </linearGradient>
  </defs>

  <rect x="20" y="20" width="280" height="180" rx="28" fill="url(#bg)"/>
  <circle cx="160" cy="98" r="42" fill="url(#halo)"/>
  <circle cx="118" cy="56" r="8" fill="#F97316" opacity="0.9"/>
  <circle cx="228" cy="78" r="11" fill="#FDBA74"/>
  <path d="M228 72.5H228.5M228 72.5V83.5M228 72.5H217M228 72.5H239" stroke="#155E66" stroke-width="3.5" stroke-linecap="round"/>

  <circle cx="178" cy="90" r="17" fill="#3C444C"/>
  <path d="M164 121.5C166.878 106.53 177.304 99 190 99C203.38 99 214.67 106.957 218 121.5V149H164V121.5Z" fill="#2C958D"/>
  <path d="M186.5 108.5L194 118L199.5 111" stroke="#F8FBFB" stroke-width="4" stroke-linecap="round" stroke-linejoin="round"/>
  <path d="M170 123C180.641 132.468 192.896 135.748 206.5 132.5C209.777 131.718 212.858 130.576 216 129" stroke="#114A51" stroke-width="3.5" stroke-linecap="round"/>

  <ellipse cx="136" cy="106" rx="24" ry="28" fill="#F7E9D7"/>
  <ellipse cx="123" cy="100" rx="8" ry="16" transform="rotate(18 123 100)" fill="#D8894E"/>
  <ellipse cx="149" cy="100" rx="8" ry="16" transform="rotate(-18 149 100)" fill="#D8894E"/>
  <path d="M118 119C123.5 113.5 129 111 136 111C143 111 148.5 113.5 154 119V145H118V119Z" fill="#FFFFFF"/>
  <circle cx="131" cy="106" r="2.5" fill="#3C444C"/>
  <circle cx="142" cy="106" r="2.5" fill="#3C444C"/>
  <path d="M136 109.5C139 111 140.5 113 140.5 116" stroke="#3C444C" stroke-width="2.5" stroke-linecap="round"/>
  <path d="M136 109.5C133 111 131.5 113 131.5 116" stroke="#3C444C" stroke-width="2.5" stroke-linecap="round"/>

  <path d="M113 142C123.283 130.445 133.602 127.003 144.5 128.5C154.088 129.817 160.596 134.418 165 142.5" stroke="#F97316" stroke-width="5" stroke-linecap="round"/>
  <circle cx="112" cy="143" r="4.5" fill="#F97316"/>
  <circle cx="165" cy="143" r="4.5" fill="#F97316"/>
</svg>
